HIERARCHY
ROOT Hips
{
  OFFSET 0 0 0
  CHANNELS 6 Xposition Yposition Zposition Zrotation Xrotation Yrotation
  JOINT Spine
  {
    OFFSET 0.00000000 0.00000000 0.00000000
    CHANNELS 3 Zrotation Xrotation Yrotation
    JOINT Spine1
    {
      OFFSET 0.19000000 0.00000000 0.00000000
      CHANNELS 3 Zrotation Xrotation Yrotation
      JOINT Neck
      {
        OFFSET 0.22500000 0.00600000 0.00000000
        CHANNELS 3 Zrotation Xrotation Yrotation
        JOINT Head
        {
          OFFSET 0.14000000 0.00030878 0.00000000
          CHANNELS 3 Zrotation Xrotation Yrotation
          End Site
          {
            OFFSET 0.17000000 0.00000000 0.00000000
          }
        }
      }
      JOINT LeftShoulder
      {
        OFFSET 0.19800000 0.03700000 0.04300000
        CHANNELS 3 Zrotation Xrotation Yrotation
        JOINT LeftArm
        {
          OFFSET 0.08000000 0.00000000 0.00000000
          CHANNELS 3 Zrotation Xrotation Yrotation
          JOINT LeftForeArm
          {
            OFFSET 0.15200000 0.00000000 0.00000000
            CHANNELS 3 Zrotation Xrotation Yrotation
            JOINT LeftHand
            {
              OFFSET 0.17800000 0.00000000 0.00000000
              CHANNELS 3 Zrotation Xrotation Yrotation
              End Site
              {
                OFFSET 0.07200000 0.00000000 0.00000000
              }
            }
          }
        }
      }
      JOINT RightShoulder
      {
        OFFSET 0.19800000 0.03700000 -0.04300000
        CHANNELS 3 Zrotation Xrotation Yrotation
        JOINT RightArm
        {
          OFFSET 0.08000000 0.00000000 0.00151654
          CHANNELS 3 Zrotation Xrotation Yrotation
          JOINT RightForeArm
          {
            OFFSET 0.15200000 0.00000000 0.00000000
            CHANNELS 3 Zrotation Xrotation Yrotation
            JOINT RightHand
            {
              OFFSET 0.17800000 0.00000000 0.00000000
              CHANNELS 3 Zrotation Xrotation Yrotation
              End Site
              {
                OFFSET 0.07200000 0.00000000 0.00000000
              }
            }
          }
        }
      }
    }
  }
  JOINT LeftUpLeg
  {
    OFFSET 0.05984250 -0.07666000 0.04788790
    CHANNELS 3 Zrotation Xrotation Yrotation
    JOINT LeftLeg
    {
      OFFSET 0.16000000 0.00000000 0.00000000
      CHANNELS 3 Zrotation Xrotation Yrotation
      JOINT LeftFoot
      {
        OFFSET 0.18000000 0.00000000 0.00000000
        CHANNELS 3 Zrotation Xrotation Yrotation
        End Site
        {
          OFFSET 0.00000000 -0.10800000 0.00000000
        }
      }
    }
  }
  JOINT RightUpLeg
  {
    OFFSET 0.05984250 -0.07665980 -0.04788790
    CHANNELS 3 Zrotation Xrotation Yrotation
    JOINT RightLeg
    {
      OFFSET 0.16000000 0.00000000 0.00000000
      CHANNELS 3 Zrotation Xrotation Yrotation
      JOINT RightFoot
      {
        OFFSET 0.18000000 0.00000000 0.00000000
        CHANNELS 3 Zrotation Xrotation Yrotation
        End Site
        {
          OFFSET 0.00000000 -0.10800000 0.00000000
        }
      }
    }
  }
  JOINT Tail
  {
    OFFSET 0.06836960 -0.00722574 0.00000000
    CHANNELS 3 Zrotation Xrotation Yrotation
    JOINT Tail1
    {
      OFFSET 0.12000000 0.00000000 0.00000000
      CHANNELS 3 Zrotation Xrotation Yrotation
      End Site
      {
        OFFSET 0.12000000 0.00000000 0.00000000
      }
    }
  }
}
MOTION
Frames:	19
Frame Time:	0.0166667
-1.0068810 0.4703490 -0.2939712 0.85883 -3.81658 133.562 177.461 -4.42376 -14.6109 24.8332 -4.1411 -24.3759 37.5347 -4.29793 -12.1306 -120.749 60.6756 125.011 -104.794 -30.3946 -134.276 125.285 -21.2068 -133.203 21.3541 -70.6546 116.298 20.2302 4.1989 -54.882 73.5098 -30.167 38.9453 45.1075 -28.8445 -35.508 -85.3374 -13.5286 -10.3924 -18.4267 -1.92665 11.5617 -136.601 -7.34873 -13.8708 61.6347 18.4861 13.3203 50.3691 -3.67677 -6.02531 -102.341 2.87136 2.60353 68.9557 -8.16112 -4.75249 55.8878 2.46485 -0.3104 -8.08956 1.79815 12.0126 10.4016 -6.06967 0.983057 
-1.0025072 0.4690170 -0.2899540 1.33813 -5.15344 134.649 178.509 -4.66058 -14.8094 23.4445 -3.9453 -23.7961 36.4725 -3.53991 -11.7213 -121.614 60.2606 125.707 -105.236 -31.559 -133.168 125.444 -18.7432 -131.498 16.0764 -69.7777 116.942 21.5468 3.73996 -51.2495 73.6688 -29.5413 37.9071 43.8587 -30.8158 -36.394 -83.4203 -14.8205 -9.51098 -18.7291 -1.90185 11.4288 -134.932 -7.67767 -14.2216 56.634 19.9592 15.0102 52.8821 -3.9368 -6.22436 -99.85 4.10418 2.27909 68.7856 -8.12339 -5.1412 56.5991 2.57365 -0.27703 -9.30785 1.30323 18.0109 9.71287 -8.14017 2.92336 
-0.9990076 0.4676400 -0.2860415 1.94170 -6.33308 135.860 179.625 -4.85753 -15.333 22.0548 -3.68265 -22.2974 35.3201 -3.00798 -11.677 -121.905 60.1257 126.46 -105.501 -32.4439 -132.146 126.227 -16.0284 -129.292 -0.997868 -71.4185 104.951 24.2542 2.77945 -43.8669 73.7457 -28.9257 36.5725 42.91 -32.6483 -36.8052 -81.5805 -15.7668 -8.8365 -19.0076 -1.71516 10.8264 -133.339 -8.87318 -14.5883 54.0895 20.7019 16.4228 54.5693 -4.07904 -6.30318 -97.6873 5.27266 1.90708 68.7991 -8.11038 -5.45342 57.6388 2.74947 -0.200554 -10.5068 0.785818 23.6208 9.22115 -10.4774 4.73594 
-0.9961097 0.4650000 -0.2820262 2.76906 -7.25283 137.204 -179.322 -5.0943 -15.5677 20.7361 -3.53001 -20.8926 34.3136 -2.67185 -11.3973 -121.724 60.3961 127.056 -105.724 -33.2256 -131.256 127.755 -13.5165 -127.283 -33.388 -71.9465 76.2801 23.9749 2.85748 -34.3259 73.7873 -28.3271 35.1147 42.1724 -34.5491 -37.0874 -79.7927 -16.6285 -7.93813 -19.0372 -1.74231 10.8375 -132.806 -10.3152 -14.1577 56.9179 19.6255 15.7416 53.3539 -3.85413 -6.04845 -96.0629 5.4384 0.480222 69.5937 -7.22142 -5.10881 58.5606 2.79322 -0.246558 -11.5715 0.398272 28.9352 8.99793 -12.887 6.47842 
-0.9930401 0.4622770 -0.2779129 3.65233 -7.94053 138.590 -178.345 -5.32048 -15.8706 19.6137 -3.43694 -19.1626 33.2682 -2.40037 -11.2605 -121.304 60.9522 127.795 -105.879 -33.9809 -130.245 129.622 -11.1839 -125.147 -66.3729 -65.1029 45.223 19.7748 3.40768 -22.8234 74.0231 -27.6289 33.9932 41.3909 -36.1154 -37.6789 -78.0726 -17.5296 -7.06055 -19.3733 -1.81001 10.8085 -132.756 -11.0424 -13.4936 61.5676 18.3413 14.1208 50.7864 -3.59015 -5.8052 -94.8494 5.11874 -1.26715 70.6235 -6.18963 -4.52065 59.6066 2.79341 -0.350394 -12.3798 -0.0220542 34.0292 8.7732 -15.1544 8.07467 
-0.9891890 0.4608950 -0.2734493 4.26032 -8.20540 140.081 -177.576 -5.38262 -16.4296 18.6677 -3.25281 -16.6208 32.2061 -2.16558 -11.3241 -121.082 61.722 128.351 -106.188 -34.8369 -129.554 131.084 -8.57719 -123.395 -81.0403 -52.937 30.2859 11.7231 3.2781 -13.2771 74.2638 -26.9761 32.964 41.147 -37.517 -37.5958 -76.5545 -17.9392 -6.51939 -19.7539 -1.77214 10.4727 -132.282 -10.7996 -12.9384 63.0665 17.9203 13.3564 50.275 -3.6519 -5.91659 -93.7743 5.16627 -2.55801 70.859 -5.57963 -4.21571 60.7913 2.77517 -0.447387 -13.4783 -0.37659 38.6103 8.34515 -17.3676 9.55967 
-0.9845076 0.4603160 -0.2677383 4.38508 -7.59144 141.988 -177.407 -5.39715 -16.8301 17.8058 -3.18804 -13.4651 31.1479 -2.16789 -11.3854 -120.48 62.7834 128.569 -106.585 -35.6819 -129.18 132.047 -4.97212 -121.309 -83.8479 -43.5541 25.2863 4.15758 2.85984 -10.531 74.5522 -26.3126 32.0244 40.9722 -39.1389 -36.9117 -75.113 -18.1742 -6.16253 -20.1883 -1.81618 10.4825 -132.198 -10.3585 -12.5878 63.2111 19.0001 13.3522 50.8408 -4.01996 -6.38244 -93.7803 5.40935 -3.97445 70.8335 -3.7 -3.97407 62.646 2.55186 -0.780484 -15.4607 -0.211412 42.2044 7.72197 -19.599 10.7918 
-0.9786481 0.4597810 -0.2605192 4.02337 -6.12487 144.364 -177.833 -5.49146 -16.8682 16.9426 -3.3908 -9.9693 30.0507 -2.41894 -11.5883 -119.489 63.7689 128.339 -106.972 -36.4366 -128.951 133.044 -1.10955 -119.482 -81.2649 -40.9623 24.672 3.29142 2.88118 -12.6237 74.9624 -25.5298 31.1092 41.156 -40.51 -35.9431 -73.6628 -18.8561 -6.00198 -21.2008 -1.74377 10.2285 -132.687 -10.2458 -11.9421 63.4985 20.9012 13.4016 51.0415 -4.44992 -6.91501 -94.5321 5.84501 -5.13152 70.5994 -1.38685 -3.8975 64.0753 2.23853 -1.13572 -18.173 0.590353 44.8221 6.81229 -21.7439 11.7283 
-0.9710738 0.4589110 -0.2521720 3.09534 -4.03330 147.172 -178.953 -5.50456 -16.3904 16.3872 -3.72267 -6.47041 28.847 -2.79144 -11.8387 -118.165 64.45 127.883 -107.549 -37.4123 -128.878 134.56 2.00559 -118.667 -78.599 -37.6768 23.2496 4.38739 2.69034 -13.6941 75.5565 -24.598 30.3516 41.7439 -41.7546 -34.8084 -72.3095 -18.9686 -5.86377 -22.0229 -1.77725 10.2889 -133.322 -10.501 -10.7433 63.0299 22.4212 13.4356 51.3464 -4.83142 -7.34932 -95.7587 6.66402 -5.6539 70.2303 -0.0355711 -4.16686 64.9289 2.06131 -1.30089 -21.078 1.89374 46.6373 5.71505 -23.3643 12.2511 
-0.9620058 0.4579700 -0.2437972 1.37595 -1.75272 150.136 178.952 -5.26809 -15.5061 16.4663 -3.99368 -3.21192 27.2893 -3.16387 -12.3225 -116.898 64.4248 127.284 -108.178 -38.6868 -128.444 137.219 3.45465 -118.425 -75.8793 -30.4215 20.0111 3.07285 2.43758 -13.5761 76.2492 -23.6516 29.8743 42.5334 -42.5294 -34.0913 -71.0047 -18.5949 -5.66937 -22.574 -1.87116 10.4737 -134.407 -10.7445 -9.81036 62.1924 24.2962 13.7444 51.7668 -5.25012 -7.80434 -98.2287 7.84426 -5.7825 71.1252 2.2564 -4.52027 64.0175 1.65949 -1.56141 -24.2399 3.24386 48.0292 4.75669 -24.4651 12.307 
-0.9517142 0.4570320 -0.2359596 -0.74164 0.13383 153.054 176.551 -4.61222 -14.7474 16.875 -3.84598 0.357058 25.4986 -3.97263 -12.7588 -115.029 64.2096 125.739 -108.824 -39.8326 -128.278 139.568 3.91092 -117.806 -72.7813 -21.4795 16.5422 0.0451485 2.0093 -11.5481 77.0309 -22.775 30.001 43.8216 -43.0162 -32.7565 -70.0359 -18.8816 -5.84311 -23.5278 -1.68887 9.98647 -135.559 -10.53 -9.14709 61.3671 26.5274 14.015 51.9218 -5.67045 -8.27606 -101.43 8.96274 -5.59436 72.9522 4.4559 -4.84702 61.5499 1.14366 -1.83902 -27.1449 4.32184 49.2708 3.9119 -25.0871 12.1952 
-0.9402179 0.4548730 -0.2285587 -2.84640 1.53172 155.890 174.37 -3.66015 -14.0667 17.2538 -3.31115 4.12118 23.6979 -4.91997 -12.9785 -112.926 64.5574 123.632 -109.548 -40.7772 -128.622 141.021 3.69345 -117.393 -69.3672 -13.526 13.5867 -1.49007 1.36489 -8.61441 77.9584 -21.8699 30.7105 45.4808 -43.6759 -30.8308 -69.3721 -19.2958 -6.21022 -24.5559 -1.38809 9.31705 -136.733 -10.1258 -8.63183 61.5667 28.3628 13.9944 51.4795 -6.0791 -8.78536 -104.324 9.45063 -4.97426 73.9321 3.0393 -5.3693 60.4021 1.16561 -1.69089 -28.9537 5.04061 50.399 3.24107 -24.8252 11.9672 
-0.9278742 0.4526070 -0.2217533 -4.82385 2.36538 158.533 172.4 -2.69951 -13.132 17.6578 -2.68242 7.32425 21.3404 -5.70034 -13.2736 -110.758 64.4002 122.066 -110.302 -41.6559 -129.113 142.596 2.0906 -118.287 -66.9434 -6.11981 11.4543 -4.92713 0.972321 -7.46598 78.8303 -20.9742 31.2938 47.0299 -44.1894 -29.1613 -68.8107 -19.4005 -6.4045 -24.9159 -1.16049 8.89614 -137.583 -9.80388 -8.44284 62.3063 29.5877 13.9703 50.7255 -6.45006 -9.28976 -106.879 8.99495 -4.54781 74.0295 -0.752313 -5.72606 60.3975 1.53435 -1.28053 -29.6782 5.28048 51.4674 2.97251 -23.6831 11.5926 
-0.9152340 0.4515510 -0.2155565 -6.54693 2.80406 160.950 170.505 -1.98297 -11.9295 18.5115 -2.18199 9.53275 18.11 -5.91285 -13.3995 -108.987 63.6926 121.873 -111.172 -42.6492 -129.668 141.708 -0.707961 -119.006 -68.0734 -1.04221 11.1445 -9.43352 1.04673 -8.62363 79.6384 -20.0751 31.6181 47.6032 -44.3528 -28.1618 -68.1578 -19.3314 -6.5688 -24.7897 -0.906698 8.41902 -137.623 -9.50326 -8.28472 62.6699 30.372 13.9445 49.8554 -6.70076 -9.67558 -109.617 8.12599 -4.06326 74.7951 -4.84497 -5.8529 59.052 1.85943 -0.842612 -29.6225 5.25347 52.4007 3.17617 -21.995 11.3362 
-0.9027038 0.4509310 -0.2096962 -7.89410 2.97759 163.244 168.459 -1.4163 -10.6922 20.241 -1.68246 11.2041 14.3288 -5.69765 -13.2202 -108.024 62.2969 122.389 -112.078 -43.2088 -130.923 138.363 -2.5666 -118.823 -70.8674 -0.32518 11.6405 -10.4586 1.23667 -9.81735 80.1626 -19.5444 32.1021 47.3139 -44.3316 -28.0214 -67.2415 -18.9889 -6.62057 -24.512 -0.693283 7.99322 -137.27 -9.10419 -8.1033 63.266 30.8095 13.7518 49.0017 -6.86779 -9.9758 -112.487 7.05343 -3.46022 76.9428 -8.32002 -5.85168 55.3222 1.99404 -0.402771 -29.0076 5.1789 53.0777 3.84782 -20.0767 11.2798 
-0.8902161 0.4503850 -0.2040304 -8.85002 2.94258 165.552 166.574 -0.882362 -9.62849 22.2273 -1.08929 13.0401 10.7551 -5.58491 -12.6661 -107.492 60.326 122.567 -112.746 -43.0731 -132.654 134.864 -2.99848 -117.895 -72.5801 0.740321 11.857 -12.0287 1.34265 -10.3463 80.364 -19.5103 33.0865 46.6924 -44.3031 -28.784 -66.0217 -18.8206 -6.36929 -23.6807 -0.196406 6.79169 -136.715 -8.51393 -7.85772 64.1518 31.347 13.2367 48.4739 -6.95705 -10.1594 -115.168 5.48027 -3.51861 79.8224 -9.9314 -5.4297 50.7128 1.82123 -0.17867 -28.1239 5.1892 53.3801 4.8893 -18.25 11.3741 
-0.8777520 0.4498050 -0.1986571 -9.52095 2.67427 167.884 165.24 -0.733402 -8.2165 23.5278 -0.841315 14.1026 7.86346 -5.36396 -11.3838 -107.236 58.7125 123.002 -112.985 -42.7776 -133.658 133.059 -4.20714 -117.244 -73.2484 3.16168 11.6574 -14.9882 1.41841 -10.3548 80.3116 -19.7631 33.9393 45.7467 -44.6979 -30.7059 -64.3313 -17.9881 -5.84834 -21.9045 0.268228 5.50738 -136.178 -7.77439 -7.56396 65.5164 31.8635 12.3163 48.1794 -6.9376 -10.1925 -118.142 3.87838 -3.71872 83.5414 -8.75639 -4.79438 46.7271 1.31138 -0.42641 -27.462 5.28045 53.2679 6.11598 -16.9199 11.7106 
-0.8657000 0.4500620 -0.1940522 -9.88592 2.07555 170.108 164.709 -0.966534 -6.6471 24.0023 -0.996679 14.4818 5.69281 -5.09537 -9.61925 -107.058 57.1923 123.86 -112.978 -42.2393 -134.505 132.12 -6.36887 -118.455 -74.1865 4.63454 11.6011 -16.9224 1.69354 -11.1938 79.9866 -20.3832 34.8415 44.4173 -45.4623 -34.0976 -62.496 -15.9461 -5.3054 -19.4461 0.571947 4.21564 -135.269 -6.9239 -7.41747 66.8441 32.1235 11.2495 47.8264 -6.83679 -10.1327 -121.032 3.11032 -2.8365 86.9103 -7.89412 -4.69105 43.8575 0.855013 -0.735041 -27.2918 5.35156 52.8558 7.56496 -16.3937 12.334 
-0.8541877 0.4510730 -0.1904665 -9.94000 1.17725 172.130 164.948 -1.25227 -5.34284 23.7729 -1.25153 14.8956 4.29281 -4.91598 -7.46406 -107.032 56.408 124.457 -112.804 -41.6476 -135.068 131.486 -9.06003 -120.403 -75.17 5.44058 11.4707 -17.5894 1.93654 -12.1156 79.3615 -21.5951 36.4604 43.3853 -45.9325 -38.7622 -61.281 -13.76 -4.81968 -16.0875 1.35992 0.816649 -134.1 -5.87576 -7.4054 68.2043 31.8221 10.0361 47.7225 -6.68542 -10.004 -123.546 2.84669 -1.72348 89.1845 -8.24552 -4.90074 41.5095 0.514108 -0.918663 -27.8781 5.47559 52.2691 9.2558 -16.9023 13.3442 
